<svg width="51" height="51" viewBox="0 0 51 51" fill="none" xmlns="http://www.w3.org/2000/svg">
<path d="M39.6666 42.5H8.49996V11.3333H27.2283L30.0616 8.5H8.49996C7.74851 8.5 7.02784 8.79851 6.49649 9.32986C5.96514 9.86122 5.66663 10.5819 5.66663 11.3333V42.5C5.66663 43.2514 5.96514 43.9721 6.49649 44.5035C7.02784 45.0348 7.74851 45.3333 8.49996 45.3333H39.6666C40.4181 45.3333 41.1387 45.0348 41.6701 44.5035C42.2014 43.9721 42.5 43.2514 42.5 42.5V21.25L39.6666 24.0833V42.5Z" fill="black"/>
<path d="M47.5009 8.27352L42.7267 3.49935C42.5148 3.2869 42.2631 3.11833 41.986 3.00332C41.7088 2.8883 41.4117 2.8291 41.1117 2.8291C40.8116 2.8291 40.5145 2.8883 40.2374 3.00332C39.9603 3.11833 39.7086 3.2869 39.4967 3.49935L20.0742 23.0352L18.5017 29.8494C18.4347 30.1797 18.4417 30.5207 18.5223 30.848C18.6029 31.1752 18.755 31.4806 18.9677 31.742C19.1803 32.0035 19.4483 32.2145 19.7523 32.36C20.0563 32.5056 20.3888 32.5819 20.7259 32.5835C20.9 32.6027 21.0758 32.6027 21.25 32.5835L28.1209 31.0677L47.5009 11.5035C47.7133 11.2916 47.8819 11.0399 47.9969 10.7628C48.1119 10.4857 48.1711 10.1886 48.1711 9.88852C48.1711 9.58847 48.1119 9.29137 47.9969 9.01424C47.8819 8.73711 47.7133 8.48539 47.5009 8.27352ZM26.6475 28.4469L21.4625 29.5944L22.6667 24.4519L37.2867 9.73269L41.2817 13.7277L26.6475 28.4469ZM42.8825 12.1269L38.8875 8.13185L41.0834 5.89352L45.1067 9.91685L42.8825 12.1269Z" fill="black"/>
</svg>
