<svg width="26" height="28" viewBox="0 0 26 28" fill="none" xmlns="http://www.w3.org/2000/svg">
<path d="M18.7656 19.3438C18.7656 18.75 18.737 18.1927 18.6797 17.6719C18.6224 17.151 18.513 16.6276 18.3516 16.1016C18.1901 15.5755 17.9844 15.1276 17.7344 14.7578C17.4844 14.388 17.151 14.0859 16.7344 13.8516C16.3177 13.6172 15.8438 13.5 15.3125 13.5C15.25 13.5417 15.0755 13.6484 14.7891 13.8203C14.5026 13.9922 14.2812 14.1198 14.125 14.2031C13.9688 14.2865 13.7578 14.3906 13.4922 14.5156C13.2266 14.6406 12.9714 14.7292 12.7266 14.7812C12.4818 14.8333 12.2396 14.8594 12 14.8594C11.7604 14.8594 11.5182 14.8333 11.2734 14.7812C11.0286 14.7292 10.7734 14.6406 10.5078 14.5156C10.2422 14.3906 10.0312 14.2865 9.875 14.2031C9.71875 14.1198 9.4974 13.9922 9.21094 13.8203C8.92448 13.6484 8.75 13.5417 8.6875 13.5C8.15625 13.5 7.68229 13.6172 7.26562 13.8516C6.84896 14.0859 6.51562 14.388 6.26562 14.7578C6.01562 15.1276 5.8099 15.5755 5.64844 16.1016C5.48698 16.6276 5.3776 17.151 5.32031 17.6719C5.26302 18.1927 5.23438 18.75 5.23438 19.3438C5.23438 20.1042 5.45312 20.737 5.89062 21.2422C6.32812 21.7474 6.86458 22 7.5 22H16.5C17.1354 22 17.6719 21.7474 18.1094 21.2422C18.5469 20.737 18.7656 20.1042 18.7656 19.3438ZM16.0625 10.0625C16.0625 8.9375 15.6641 7.97917 14.8672 7.1875C14.0703 6.39583 13.1146 6 12 6C10.8854 6 9.92969 6.39583 9.13281 7.1875C8.33594 7.97917 7.9375 8.9375 7.9375 10.0625C7.9375 11.1771 8.33594 12.1302 9.13281 12.9219C9.92969 13.7135 10.8854 14.1094 12 14.1094C13.1146 14.1094 14.0703 13.7135 14.8672 12.9219C15.6641 12.1302 16.0625 11.1771 16.0625 10.0625ZM26 18.5V21.5C26 21.6458 25.9531 21.7656 25.8594 21.8594C25.7656 21.9531 25.6458 22 25.5 22H24V25.5C24 26.1875 23.7552 26.776 23.2656 27.2656C22.776 27.7552 22.1875 28 21.5 28H2.5C1.8125 28 1.22396 27.7552 0.734375 27.2656C0.244792 26.776 0 26.1875 0 25.5V2.5C0 1.8125 0.244792 1.22396 0.734375 0.734375C1.22396 0.244792 1.8125 0 2.5 0H21.5C22.1875 0 22.776 0.244792 23.2656 0.734375C23.7552 1.22396 24 1.8125 24 2.5V6H25.5C25.6458 6 25.7656 6.04688 25.8594 6.14062C25.9531 6.23438 26 6.35417 26 6.5V9.5C26 9.64583 25.9531 9.76562 25.8594 9.85938C25.7656 9.95312 25.6458 10 25.5 10H24V12H25.5C25.6458 12 25.7656 12.0469 25.8594 12.1406C25.9531 12.2344 26 12.3542 26 12.5V15.5C26 15.6458 25.9531 15.7656 25.8594 15.8594C25.7656 15.9531 25.6458 16 25.5 16H24V18H25.5C25.6458 18 25.7656 18.0469 25.8594 18.1406C25.9531 18.2344 26 18.3542 26 18.5Z" fill="white"/>
</svg>
