<svg width="24" height="20" viewBox="0 0 24 20" fill="none" xmlns="http://www.w3.org/2000/svg">
<path d="M12.0002 15.6246C9.15579 15.6246 6.85329 13.3313 6.64141 10.425L2.70766 7.25821C2.19054 7.93399 1.71466 8.64844 1.33066 9.42969C1.24488 9.60645 1.20018 9.80175 1.20018 9.99981C1.20018 10.1979 1.24488 10.3932 1.33066 10.5699C3.36429 14.7031 7.39029 17.4996 12.0002 17.4996C13.0093 17.4996 13.9828 17.3434 14.921 17.091L12.9752 15.5227C12.6538 15.5873 12.3275 15.6215 12.0002 15.6246ZM23.7684 17.8941L19.6228 14.5566C20.8821 13.4511 21.9178 12.0958 22.6697 10.5695C22.7554 10.3928 22.8001 10.1975 22.8001 9.99942C22.8001 9.80135 22.7554 9.60606 22.6697 9.4293C20.636 5.2961 16.61 2.49961 12.0002 2.49961C10.0695 2.50205 8.17014 3.00835 6.47566 3.97227L1.70491 0.131255C1.6427 0.0808281 1.57156 0.0436652 1.49556 0.0218897C1.41955 0.000114173 1.34017 -0.00584708 1.26195 0.00434657C1.18374 0.0145402 1.10821 0.040689 1.0397 0.0812986C0.971189 0.121908 0.91103 0.176183 0.862663 0.24102L0.126538 1.22813C0.0288875 1.35898 -0.0148691 1.52488 0.00489193 1.68934C0.024653 1.85379 0.106313 2.00334 0.231913 2.10508L22.2954 19.868C22.3576 19.9184 22.4288 19.9556 22.5048 19.9773C22.5808 19.9991 22.6602 20.0051 22.7384 19.9949C22.8166 19.9847 22.8921 19.9585 22.9606 19.9179C23.0291 19.8773 23.0893 19.823 23.1377 19.7582L23.8742 18.7711C23.9718 18.6402 24.0155 18.4743 23.9956 18.3098C23.9758 18.1454 23.8941 17.9958 23.7684 17.8941ZM16.8789 12.3473L15.4052 11.1606C15.5293 10.7869 15.5951 10.395 15.6002 9.99961C15.6075 9.42081 15.4844 8.84829 15.2408 8.32803C14.9971 7.80777 14.6397 7.35429 14.1973 7.004C13.7549 6.65371 13.2398 6.41638 12.6934 6.31107C12.147 6.20577 11.5845 6.23543 11.051 6.39766C11.2772 6.71684 11.3995 7.10293 11.4002 7.49961C11.3946 7.63162 11.3752 7.7626 11.3424 7.89024L8.58204 5.66797C9.54091 4.83329 10.7506 4.37558 12.0002 4.37461C12.7094 4.3742 13.4118 4.51942 14.0671 4.80196C14.7225 5.08449 15.3179 5.49881 15.8194 6.02122C16.3209 6.54363 16.7187 7.16389 16.9899 7.84653C17.2612 8.52918 17.4006 9.26081 17.4002 9.99961C17.4002 10.8445 17.2018 11.632 16.8789 12.3477V12.3473Z" fill="#E64646"/>
</svg>
