<svg width="22" height="20" viewBox="0 0 22 20" fill="white" xmlns="http://www.w3.org/2000/svg">
<g clip-path="url(#clip0_41:2554)">
<path  d="M21.8671 9.42969C19.7958 5.29648 15.6952 2.5 11 2.5C6.30474 2.5 2.20303 5.29844 0.132896 9.43008C0.0455229 9.60684 0 9.80213 0 10.0002C0 10.1983 0.0455229 10.3936 0.132896 10.5703C2.20418 14.7035 6.30474 17.5 11 17.5C15.6952 17.5 19.7969 14.7016 21.8671 10.5699C21.9544 10.3932 22 10.1979 22 9.9998C22 9.80174 21.9544 9.60645 21.8671 9.42969ZM11 15.625C9.91218 15.625 8.84881 15.2951 7.94434 14.677C7.03987 14.0589 6.33492 13.1804 5.91864 12.1526C5.50236 11.1248 5.39344 9.99376 5.60566 8.90262C5.81788 7.81147 6.3417 6.80919 7.11089 6.02252C7.88008 5.23585 8.86009 4.70012 9.92698 4.48308C10.9939 4.26604 12.0997 4.37743 13.1047 4.80318C14.1097 5.22892 14.9687 5.94989 15.5731 6.87492C16.1774 7.79994 16.5 8.88748 16.5 10C16.5003 10.7388 16.3583 11.4704 16.082 12.153C15.8058 12.8356 15.4006 13.4559 14.8898 13.9783C14.3791 14.5007 13.7726 14.915 13.1052 15.1976C12.4377 15.4801 11.7223 15.6254 11 15.625ZM11 6.25C10.6727 6.25468 10.3475 6.30448 10.0333 6.39805C10.2923 6.75808 10.4166 7.20113 10.3837 7.64685C10.3507 8.09258 10.1626 8.51146 9.85357 8.82754C9.54452 9.14362 9.13494 9.33595 8.69912 9.36967C8.2633 9.40339 7.8301 9.27626 7.47807 9.01133C7.27761 9.76664 7.3138 10.5672 7.58153 11.3004C7.84926 12.0336 8.33507 12.6624 8.97056 13.0984C9.60605 13.5344 10.3592 13.7556 11.1241 13.7309C11.889 13.7062 12.627 13.4368 13.2343 12.9607C13.8416 12.4845 14.2876 11.8256 14.5096 11.0766C14.7316 10.3276 14.7183 9.52624 14.4716 8.78538C14.2249 8.04452 13.7573 7.40142 13.1345 6.94661C12.5118 6.49179 11.7652 6.24816 11 6.25Z" fill="#E64646"/>
</g>
<defs>
<clipPath id="clip0_41:2554">
<rect width="22" height="20" fill="white"/>
</clipPath>
</defs>
</svg>
