<svg width="20" height="20" viewBox="0 0 20 20" fill="none" xmlns="http://www.w3.org/2000/svg">
<path fill-rule="evenodd" clip-rule="evenodd" d="M10 20C15.5228 20 20 15.5228 20 10C20 4.47715 15.5228 0 10 0C4.47715 0 0 4.47715 0 10C0 15.5228 4.47715 20 10 20ZM15.1785 7.15482C14.8531 6.82939 14.3254 6.82939 14 7.15482L8.33333 12.8333L6.16666 10.6667C5.84123 10.3412 5.31359 10.3412 4.98815 10.6667C4.66272 10.9921 4.66272 11.5197 4.98815 11.8452L7.80964 14.6667C7.98421 14.8333 8.43333 15.0667 8.83333 14.6667L15.1785 8.32149C15.5039 7.99605 15.5039 7.48026 15.1785 7.15482Z" fill="#4ECC5E"/>
</svg>
